<svg width="90" height="90" viewBox="0 0 90 90" fill="none" xmlns="http://www.w3.org/2000/svg">
<path fill-rule="evenodd" clip-rule="evenodd" d="M44.6562 89.3135C69.3184 89.3135 89.3115 69.3203 89.3115 44.6562C89.3115 19.9932 69.3184 0 44.6562 0C19.9932 0 0 19.9932 0 44.6562C0 69.3203 19.9932 89.3135 44.6562 89.3135ZM12.6807 50C15.7178 50 18.1807 47.5371 18.1807 44.5C18.1807 41.4629 15.7178 39 12.6807 39C9.64355 39 7.18066 41.4629 7.18066 44.5C7.18066 47.5371 9.64355 50 12.6807 50ZM46.1807 44.5C46.1807 50.8516 41.0322 56 34.6807 56C28.3291 56 23.1807 50.8516 23.1807 44.5C23.1807 38.1484 28.3291 33 34.6807 33C41.0322 33 46.1807 38.1484 46.1807 44.5ZM68.1807 62C77.5693 62 85.1807 54.3887 85.1807 45C85.1807 35.6113 77.5693 28 68.1807 28C58.792 28 51.1807 35.6113 51.1807 45C51.1807 54.3887 58.792 62 68.1807 62Z" fill="#FF3333" fill-opacity="0.5"/>
</svg>
