<svg width="90" height="86" viewBox="0 0 90 86" fill="none" xmlns="http://www.w3.org/2000/svg">
<path d="M88.4641 43C88.4641 66.1605 68.9513 85 44.8004 85C20.6495 85 1.13672 66.1605 1.13672 43C1.13672 19.8395 20.6495 1 44.8004 1C68.9513 1 88.4641 19.8395 88.4641 43Z" fill="white" stroke="#80A2C5" stroke-width="2"/>
<path d="M48.0434 21.4909C47.8427 21.191 47.7782 20.9883 47.7782 20.9883L47.8739 20.9031C47.8739 20.9031 48.0599 20.978 48.3849 21.1069C48.5383 21.1662 48.7262 21.2389 48.9415 21.321C49.1535 21.3954 49.3843 21.4821 49.6317 21.5402C49.7536 21.5768 49.8776 21.6132 50.0058 21.6271C50.0704 21.6354 50.1319 21.6526 50.1958 21.664C50.2592 21.6681 50.3228 21.6701 50.3859 21.6779C50.6415 21.7112 50.8764 21.6843 51.134 21.6713C51.2534 21.6287 51.3862 21.6168 51.5162 21.5626C51.6353 21.4945 51.791 21.455 51.9015 21.3677C51.9601 21.3288 52.0209 21.2882 52.0861 21.2482C52.1538 21.2113 52.2258 21.1822 52.2977 21.1068L52.7528 20.7368C52.7571 20.7311 52.7262 20.7747 52.741 20.7544L52.7442 20.7512L52.7519 20.7446L52.7669 20.7322L52.7969 20.7062L52.8569 20.6543L52.9763 20.5529L53.2016 20.3461C53.3432 20.2047 53.5214 20.0946 53.6643 19.9584C53.8049 19.8174 53.9939 19.7312 54.1443 19.5945C54.3052 19.4718 54.4932 19.3799 54.6746 19.2609C55.0556 19.0872 55.501 18.9584 55.8997 19.0125C55.9997 19.0229 56.0968 19.038 56.1923 19.055C56.2847 19.0799 56.3715 19.1107 56.4574 19.1419C56.6334 19.1981 56.785 19.2785 56.9278 19.358C57.2131 19.5177 57.4399 19.7026 57.6212 19.8814C57.8013 20.0608 57.9368 20.2354 58.0343 20.3877C58.1365 20.5367 58.1956 20.6683 58.2372 20.7583C58.2716 20.8508 58.2897 20.9006 58.2897 20.9006L58.1942 20.9869C58.1942 20.9869 57.9893 20.9198 57.6746 20.7925C57.5213 20.7333 57.3353 20.659 57.1219 20.5758C56.9158 20.4937 56.6891 20.4032 56.4497 20.3248C56.3305 20.2822 56.2072 20.238 56.0826 20.2088C56.0194 20.1938 55.9572 20.1698 55.8936 20.1522C55.8303 20.1398 55.7671 20.1241 55.7035 20.1039C55.4464 20.0228 55.1808 19.9428 54.8519 19.9096C54.7009 19.9288 54.5205 19.9226 54.3633 19.986C54.2122 20.0603 54.0386 20.1175 53.9172 20.2495C53.7949 20.3767 53.6553 20.4881 53.5696 20.6502L53.4449 20.8918L53.3876 21.0135L53.3598 21.0738L53.3461 21.1049L53.3392 21.1189L53.336 21.1262L53.3338 21.1309C53.3462 21.1132 53.3146 21.159 53.3167 21.1563L53.0714 21.6802C52.9909 21.8492 52.8062 22.0399 52.6554 22.2077C52.5024 22.3906 52.2975 22.4957 52.115 22.6391C51.9241 22.769 51.6909 22.8439 51.4775 22.9379C51.0232 23.0635 50.5487 23.0861 50.1493 22.9826C49.9454 22.939 49.7578 22.8818 49.5924 22.7987C49.4193 22.7279 49.2701 22.6397 49.1294 22.5544C48.8499 22.3752 48.6283 22.1854 48.4532 21.9993C48.2743 21.8194 48.1418 21.6417 48.0434 21.4909ZM67.6512 51.2106V62H20.9102V51.2106H24.094V39.0906L33.0662 32.9953V39.0906L42.037 32.9953V39.0906L51.0097 32.9953V44.976H54.1054L55.7866 23.7829H60.9179L62.3895 44.976H65.8418V51.2115H67.6511V51.2106H67.6512ZM35.5622 46.5515H28.5082V52.8568H35.5622V46.5515ZM47.7171 46.5515H40.663V52.8568H47.7171V46.5515ZM60.0248 46.5515H52.9709V52.8568H60.0248V46.5515Z" fill="#80A2C5"/>
</svg>
