<svg width="90" height="86" viewBox="0 0 90 86" fill="none" xmlns="http://www.w3.org/2000/svg">
<path d="M88.9856 43C88.9856 66.1605 69.4728 85 45.3219 85C21.171 85 1.6582 66.1605 1.6582 43C1.6582 19.8395 21.171 1 45.3219 1C69.4728 1 88.9856 19.8395 88.9856 43Z" fill="white" stroke="#80A2C5" stroke-width="2"/>
<path d="M43.6109 60.9997C45.5059 60.9997 47.0421 59.5554 47.0421 57.7737C47.0421 55.9921 45.5059 54.5477 43.6109 54.5477C41.7159 54.5477 40.1797 55.9921 40.1797 57.7737C40.1797 59.5554 41.7159 60.9997 43.6109 60.9997Z" fill="#80A2C5"/>
<path d="M27.4566 60.9997C29.3516 60.9997 30.8878 59.5554 30.8878 57.7737C30.8878 55.9921 29.3516 54.5477 27.4566 54.5477C25.5616 54.5477 24.0254 55.9921 24.0254 57.7737C24.0254 59.5554 25.5616 60.9997 27.4566 60.9997Z" fill="#80A2C5"/>
<path d="M71.8715 57.9915H58.0184C57.1928 57.9915 56.5234 57.3623 56.5234 56.5859V26.4055C56.5234 25.6292 57.1928 25 58.0184 25C58.844 25 59.5133 25.6292 59.5133 26.4055V55.1804H71.8716C72.6973 55.1804 73.3665 55.8098 73.3665 56.5859C73.3664 57.3623 72.6972 57.9915 71.8715 57.9915Z" fill="#80A2C5"/>
<path d="M52.3823 45.8865C49.2898 41.1345 41.1575 28.4005 41.0759 28.2731C40.6619 27.6214 39.9031 27.2167 39.096 27.2167H25.9234C24.6516 27.2167 23.6168 28.1895 23.6168 29.3853V41.3192H19.9102C19.0313 41.3193 18.3164 41.9914 18.3164 42.8175V56.6437C18.3164 57.4698 19.0313 58.1419 19.9102 58.1419H21.5795C21.7957 58.1419 21.9707 57.9771 21.9707 57.7739C21.9707 54.9299 24.4317 52.6161 27.4566 52.6161C30.4816 52.6161 32.9426 54.9299 32.9426 57.774C32.9426 57.8716 32.9838 57.9652 33.0572 58.0342C33.1306 58.1032 33.2301 58.1419 33.334 58.1419H37.7329C37.949 58.1419 38.1242 57.9771 38.1242 57.7739C38.1242 54.9299 40.585 52.6161 43.6099 52.6161C46.6349 52.6161 49.0958 54.9299 49.0958 57.774C49.0958 57.9772 49.2711 58.1419 49.4872 58.1419H50.6813C51.8221 58.1419 52.7503 57.2693 52.7503 56.1967V46.8658C52.7504 46.4842 52.5604 46.1603 52.3823 45.8865ZM39.2942 45.863V43.8474C39.2942 43.5011 38.9955 43.2203 38.6271 43.2203H34.8471V37.285C34.8471 36.9386 34.5484 36.6578 34.1799 36.6578H32.0676C31.6993 36.6578 31.4005 36.9385 31.4005 37.285V45.8631H28.2303L28.2299 31.554H37.7872L46.8811 45.8631H39.2942V45.863Z" fill="#80A2C5"/>
<path d="M73.3674 52.3063C73.3674 52.6758 73.0489 52.9753 72.656 52.9753H62.4634C62.0705 52.9753 61.752 52.6758 61.752 52.3063V42.7233C61.752 42.3538 62.0705 42.0543 62.4634 42.0543H72.656C73.0489 42.0543 73.3674 42.3538 73.3674 42.7233V52.3063Z" fill="#80A2C5"/>
<path d="M73.3674 38.6463C73.3674 39.0158 73.0489 39.3154 72.656 39.3154H62.4634C62.0705 39.3154 61.752 39.0158 61.752 38.6463V29.0634C61.752 28.6939 62.0705 28.3944 62.4634 28.3944H72.656C73.0489 28.3944 73.3674 28.6939 73.3674 29.0634V38.6463Z" fill="#80A2C5"/>
</svg>
