<svg width="90" height="86" viewBox="0 0 90 86" fill="none" xmlns="http://www.w3.org/2000/svg">
<path d="M88.55 43C88.55 66.1605 69.0373 85 44.8863 85C20.7354 85 1.22266 66.1605 1.22266 43C1.22266 19.8395 20.7354 1 44.8863 1C69.0373 1 88.55 19.8395 88.55 43Z" fill="white" stroke="#80A2C5" stroke-width="2"/>
<path fill-rule="evenodd" clip-rule="evenodd" d="M63.003 43.3214C64.954 43.4073 66.6092 41.9236 66.6946 40.0071C66.78 38.0905 65.4082 36.3676 63.4556 36.2847L50.4934 34.7134C50.4934 34.7134 53.1946 30.3513 53.1946 23.8882C53.1946 19.5797 50.0064 19 48.1314 19C46.6564 18.9995 46.2592 21.7586 46.2592 21.7586H46.2562C45.9222 23.5278 45.4873 25.0729 43.976 27.9177C42.2843 31.1061 39.9804 30.807 37.2906 33.647C36.8159 34.1472 36.1781 34.9727 35.5565 35.9885C35.5058 36.0422 35.4584 36.1174 35.4126 36.2232C35.3571 36.3492 35.2908 36.4366 35.2323 36.5531C35.1293 36.7357 35.028 36.9183 34.9285 37.1101C33.2637 38.7172 30.6701 38.553 29.5657 38.553C27.3505 38.553 26.1902 39.7957 26.1902 41.8118L26.1895 56.7106C26.1895 58.9725 27.1481 59.7354 29.5659 59.7354H32.9414C34.6409 59.7354 35.9716 60.676 38.0049 61.3648C40.7899 62.2963 44.9492 62.9954 52.114 62.9954C53.367 62.9954 57.2534 63 57.2534 63C58.4433 63 59.3991 62.4753 60.0888 61.8416C60.3513 61.6008 60.6252 61.2508 60.7423 60.568C60.7613 60.4622 60.7817 60.0187 60.7787 59.9588C60.8687 58.0055 59.6456 57.2983 58.9527 57.0757C58.9716 57.0695 58.9591 57.0527 58.9968 57.0542L61.1964 57.1492C63.149 57.2351 65.0763 55.8772 65.0763 53.568C65.0763 51.6531 63.4685 50.3027 61.5223 50.2107L62.6886 50.263C64.641 50.3458 66.2914 48.8621 66.3817 46.9456C66.4668 45.0292 64.954 43.4075 63.003 43.3214Z" fill="#80A2C5"/>
</svg>
