<svg width="91" height="90" viewBox="0 0 91 90" fill="none" xmlns="http://www.w3.org/2000/svg">
<path d="M48.1006 51C48.5293 51 48.876 50.6641 48.876 50.25V48.75C48.876 48.3359 48.5293 48 48.1006 48H46.5508V39.75C46.5508 39.3359 46.2041 39 45.7764 39H44.46C44.002 39 43.5527 39.1318 43.1709 39.3779L41.6855 40.3359C41.6016 40.3906 41.5283 40.4609 41.4717 40.542C41.415 40.624 41.376 40.7158 41.3555 40.8125C41.3359 40.9092 41.3359 41.0088 41.3555 41.1055C41.375 41.2021 41.4141 41.2939 41.4707 41.376L42.3311 42.623C42.3877 42.7051 42.46 42.7754 42.5449 42.8311C42.6289 42.8857 42.7236 42.9238 42.8232 42.9434C42.9238 42.9619 43.0264 42.9629 43.126 42.9434C43.2256 42.9238 43.3213 42.8857 43.4053 42.832L43.4512 42.8027V48H41.9014C41.6523 48 41.4307 48.1133 41.2891 48.29C41.1865 48.417 41.126 48.5771 41.126 48.75V50.25C41.126 50.6641 41.4727 51 41.9014 51H48.1006Z" fill="#FF3333" fill-opacity="0.5"/>
<path fill-rule="evenodd" clip-rule="evenodd" d="M65.1514 58.5C65.1514 55.1855 67.9268 52.5 71.3506 52.5V37.5C67.9268 37.5 65.1514 34.8145 65.1514 31.5H24.8506C24.8506 34.8145 22.0752 37.5 18.6514 37.5V52.5C22.0752 52.5 24.8506 55.1855 24.8506 58.5H65.1514ZM35.7012 45C35.7012 39.2002 39.8643 34.5 45.001 34.5C50.1377 34.5 54.3008 39.2002 54.3008 45C54.3008 50.8008 50.1357 55.5 45.001 55.5C39.8643 55.5 35.7012 50.7988 35.7012 45Z" fill="#FF3333" fill-opacity="0.5"/>
<path fill-rule="evenodd" clip-rule="evenodd" d="M45.4766 89.3135C70.1387 89.3135 90.1318 69.3203 90.1318 44.6562C90.1318 19.9932 70.1387 0 45.4766 0C20.8135 0 0.820312 19.9932 0.820312 44.6562C0.820312 69.3203 20.8135 89.3135 45.4766 89.3135ZM17.1006 27H72.9014C74.6123 27 76.001 28.3438 76.001 30V60C76.001 61.6562 74.6123 63 72.9014 63H17.1006C15.3896 63 14.001 61.6562 14.001 60V30C14.001 28.3438 15.3896 27 17.1006 27Z" fill="#FF3333" fill-opacity="0.5"/>
</svg>
