<svg width="91" height="90" viewBox="0 0 91 90" fill="none" xmlns="http://www.w3.org/2000/svg">
<path d="M28.3721 44.2578H21.7109V46.1611H31.0518C30.6582 45.0566 29.6113 44.2578 28.3721 44.2578Z" fill="#FF3333" fill-opacity="0.5"/>
<path d="M31.2266 49.9678V48.0645H21.7109V49.9678H31.2266Z" fill="#FF3333" fill-opacity="0.5"/>
<path d="M31.2266 57.5811H33.1299V51.8711H19.8076V57.5811H29.3232V59.4834H19.8076V67.0967H33.1299V59.4834H31.2266V57.5811Z" fill="#FF3333" fill-opacity="0.5"/>
<path d="M62.6299 34.7422C65.2539 34.7422 67.3877 32.6074 67.3877 29.9834C67.3877 27.3604 65.2539 25.2256 62.6299 25.2256C60.0068 25.2256 57.8721 27.3604 57.8721 29.9834C57.8721 32.6074 60.0068 34.7422 62.6299 34.7422Z" fill="#FF3333" fill-opacity="0.5"/>
<path d="M66.4365 44.2578V35.4424C65.3564 36.1982 64.0449 36.6455 62.6299 36.6455C61.2148 36.6455 59.9033 36.1982 58.8232 35.4424V44.2578H66.4365Z" fill="#FF3333" fill-opacity="0.5"/>
<path d="M38.1719 30.3145C38.8691 30.2764 39.5576 30.002 40.1133 29.4902L47.8154 22.3809C45.8711 21.2227 44.5605 19.1074 44.5508 16.6865L35.8574 24.9473C35.2432 25.5293 34.9004 26.3174 34.8887 27.1631C34.877 28.0088 35.2021 28.8057 35.7998 29.4043C36.4531 30.0566 37.3193 30.3613 38.1719 30.3145Z" fill="#FF3333" fill-opacity="0.5"/>
<path d="M46.4521 16.6611C46.4521 19.2822 48.583 21.415 51.2041 21.4189H51.2148C53.8359 21.416 55.9688 19.2832 55.9688 16.6611C55.9688 14.0381 53.834 11.9033 51.2109 11.9033C48.5869 11.9033 46.4521 14.0381 46.4521 16.6611Z" fill="#FF3333" fill-opacity="0.5"/>
<path d="M53 23.0713L56.6162 27.1396C57.6855 24.8867 59.9756 23.3223 62.6299 23.3223L62.708 23.3262L57.7666 17.8037C57.3252 20.3408 55.4463 22.3867 53 23.0713Z" fill="#FF3333" fill-opacity="0.5"/>
<path d="M55.9688 46.1611V49.9678H69.291V46.1611H55.9688Z" fill="#FF3333" fill-opacity="0.5"/>
<path d="M58.9766 58.4746L60.5059 59.3574L61.457 57.709L59.918 56.8193C60.0391 56.6953 60.1689 56.5811 60.3076 56.4756L60.4453 56.375C60.8135 56.1201 61.2305 55.9297 61.6777 55.8125V57.5811H63.5811V55.8125C64.2578 55.9893 64.8662 56.335 65.3418 56.8193L63.8027 57.708L64.7549 59.3564L66.2842 58.4736C66.3721 58.7979 66.4365 59.1318 66.4365 59.4844C66.4365 59.8359 66.3721 60.1699 66.2832 60.4941L64.7539 59.6104L63.8018 61.2588L65.3418 62.1484C64.8662 62.6328 64.2578 62.9795 63.5811 63.1553V61.3877H61.6777V63.1553C61.001 62.9795 60.3936 62.6328 59.918 62.1484L61.4561 61.2598L60.5049 59.6113L58.9756 60.4951C58.8867 60.1699 58.8232 59.8359 58.8232 59.4844C58.8232 59.1318 58.8867 58.7979 58.9766 58.4746Z" fill="#FF3333" fill-opacity="0.5"/>
<path fill-rule="evenodd" clip-rule="evenodd" d="M54.0654 67.0967H71.1943V51.8711H54.0654V67.0967ZM62.6299 65.1934C65.7783 65.1934 68.3389 62.6328 68.3389 59.4844C68.3389 56.335 65.7783 53.7744 62.6299 53.7744C59.4805 53.7744 56.9199 56.335 56.9199 59.4844C56.9199 62.6328 59.4805 65.1934 62.6299 65.1934Z" fill="#FF3333" fill-opacity="0.5"/>
<path fill-rule="evenodd" clip-rule="evenodd" d="M90.1318 44.6562C90.1318 69.3203 70.1387 89.3135 45.4766 89.3135C20.8135 89.3135 0.820312 69.3203 0.820312 44.6562C0.820312 19.9932 20.8135 0 45.4766 0C70.1387 0 90.1318 19.9932 90.1318 44.6562ZM26.4688 37.5967H24.5654V39.5H26.4688V37.5967ZM22.6621 34.7422H24.5654V36.6455H22.6621V34.7422ZM33.1299 39.5H31.2266V41.4033H33.1299V39.5ZM35.0332 37.5967H36.9365V39.5H35.0332V37.5967ZM73.0977 49.9678V67.0967H75.001V69H16.001V67.0967H17.9043V49.9678H19.8076V48.0645H17.9043V46.1611H19.8076V42.3545H28.3721C30.6699 42.3545 32.5918 43.9922 33.0342 46.1611H35.0332V48.0645H33.1299V49.9678H35.0332V67.0967H52.1621V49.9678H54.0654V44.2578H56.9199V33.3975C56.3213 32.3975 55.9688 31.2324 55.9688 29.9834C55.9688 29.7578 55.9805 29.5342 56.0029 29.3125L50.6533 23.2939C50.3535 23.2695 50.0605 23.2256 49.7734 23.1621L41.4033 30.8887C40.8389 31.4092 40.1885 31.7773 39.502 31.9932C39.0137 32.1465 38.5068 32.2236 38 32.2236C37.2783 32.2246 36.5605 32.0615 35.8955 31.7461C35.6172 31.6143 35.3477 31.4561 35.0908 31.2715L29.9961 36.3662L28.6504 35.0205L33.7754 29.8965C33.2529 29.0801 32.9717 28.1318 32.9844 27.1387C32.999 26.0459 33.3584 25.0146 34.0088 24.165C34.1699 23.9541 34.3496 23.7539 34.5459 23.5674L45.6279 13.04C46.8174 11.2129 48.873 10 51.2109 10C54.2197 10 56.7666 12.0068 57.5889 14.751L66.1914 24.3633C68.0508 25.5469 69.291 27.6211 69.291 29.9834C69.291 31.2324 68.9404 32.3975 68.3398 33.3975V44.2578H71.1943V49.9678H73.0977Z" fill="#FF3333" fill-opacity="0.5"/>
</svg>
