<svg width="91" height="90" viewBox="0 0 91 90" fill="none" xmlns="http://www.w3.org/2000/svg">
<path fill-rule="evenodd" clip-rule="evenodd" d="M66.6611 6.71777C67.1201 6.55664 67.5479 6.33008 67.9346 6.0498C73.2881 9.1709 77.9346 13.375 81.5723 18.3604C80.6045 19.2725 80.001 20.5654 80.001 22C80.001 24.7617 82.2393 27 85.001 27C85.4932 27 85.9678 26.9297 86.417 26.7969C88.8057 32.2666 90.1318 38.3066 90.1318 44.6562C90.1318 49.3271 89.4141 53.8311 88.084 58.0635C87.2344 57.3975 86.1641 57 85.001 57C82.2393 57 80.001 59.2383 80.001 62C80.001 64.4844 81.8125 66.5459 84.1875 66.9346C80.6953 72.9902 75.8232 78.1494 70.001 81.9824C69.9912 79.2285 67.7568 77 65.001 77C62.2393 77 60.001 79.2383 60.001 82C60.001 83.6973 60.8467 85.1973 62.1396 86.1006C56.9912 88.1729 51.3672 89.3135 45.4766 89.3135C39.3496 89.3135 33.5107 88.0791 28.1953 85.8467C28.416 85.6631 28.6201 85.4609 28.8066 85.2432C29.2275 84.75 29.5547 84.1748 29.7588 83.5439C29.916 83.0576 30.001 82.5391 30.001 82C30.001 79.2383 27.7627 77 25.001 77C22.4541 77 20.3525 78.9033 20.041 81.3662C14.5547 77.5576 9.96289 72.5508 6.64453 66.7236C8.59863 66.0439 10.001 64.1855 10.001 62C10.001 59.2383 7.7627 57 5.00098 57C4.54785 57 4.10938 57.0596 3.69238 57.1729C3.45801 57.2363 3.23047 57.3154 3.01172 57.4111C2.9502 57.4375 2.88965 57.4648 2.83008 57.4941L2.71094 57.5537C1.48926 53.4971 0.829102 49.1973 0.820312 44.7441C1.71387 46.1035 3.25293 47 5.00098 47C7.7627 47 10.001 44.7617 10.001 42C10.001 39.2383 7.7627 37 5.00098 37C3.48438 37 2.12598 37.6748 1.20898 38.7412C1.75488 34.6133 2.86523 30.6631 4.45898 26.9707C4.63672 26.9902 4.81836 27 5.00098 27C7.7627 27 10.001 24.7617 10.001 22C10.001 21.3369 9.87109 20.7031 9.63672 20.124C9.46484 19.6982 9.23633 19.3027 8.95996 18.9453C12.5479 13.8594 17.1709 9.55664 22.5225 6.34375C23.2529 6.76172 24.0986 7 25.001 7C27.499 7 29.5684 5.16895 29.9414 2.77637C33.2285 1.55664 36.6982 0.712891 40.2988 0.296875C40.1064 0.828125 40.001 1.40234 40.001 2C40.001 4.76172 42.2393 7 45.001 7C47.7627 7 50.001 4.76172 50.001 2C50.001 1.36328 49.8818 0.753906 49.665 0.193359C51.8604 0.397461 54.0098 0.760742 56.1016 1.27148C57.4316 1.59668 58.7383 1.98047 60.0186 2.4209C60.2324 4.98535 62.3809 7 65.001 7C65.251 7 65.4961 6.98145 65.7354 6.94629C66.0547 6.89941 66.3643 6.82227 66.6611 6.71777ZM30.001 42C30.001 44.7617 27.7627 47 25.001 47C22.2393 47 20.001 44.7617 20.001 42C20.001 39.2383 22.2393 37 25.001 37C27.7627 37 30.001 39.2383 30.001 42ZM45.001 47C47.7627 47 50.001 44.7617 50.001 42C50.001 39.2383 47.7627 37 45.001 37C42.2393 37 40.001 39.2383 40.001 42C40.001 44.7617 42.2393 47 45.001 47ZM70.001 42C70.001 44.7617 67.7627 47 65.001 47C62.2393 47 60.001 44.7617 60.001 42C60.001 39.2383 62.2393 37 65.001 37C67.7627 37 70.001 39.2383 70.001 42ZM85.001 47C87.7627 47 90.001 44.7617 90.001 42C90.001 39.2383 87.7627 37 85.001 37C82.2393 37 80.001 39.2383 80.001 42C80.001 44.7617 82.2393 47 85.001 47ZM25.001 27C27.7627 27 30.001 24.7617 30.001 22C30.001 19.2383 27.7627 17 25.001 17C22.2393 17 20.001 19.2383 20.001 22C20.001 24.7617 22.2393 27 25.001 27ZM50.001 22C50.001 24.7617 47.7627 27 45.001 27C42.2393 27 40.001 24.7617 40.001 22C40.001 19.2383 42.2393 17 45.001 17C47.7627 17 50.001 19.2383 50.001 22ZM65.001 27C67.7627 27 70.001 24.7617 70.001 22C70.001 19.2383 67.7627 17 65.001 17C62.2393 17 60.001 19.2383 60.001 22C60.001 24.7617 62.2393 27 65.001 27ZM25.001 67C27.7627 67 30.001 64.7617 30.001 62C30.001 59.2383 27.7627 57 25.001 57C22.2393 57 20.001 59.2383 20.001 62C20.001 64.7617 22.2393 67 25.001 67ZM50.001 62C50.001 64.7617 47.7627 67 45.001 67C42.2393 67 40.001 64.7617 40.001 62C40.001 59.2383 42.2393 57 45.001 57C47.7627 57 50.001 59.2383 50.001 62ZM65.001 67C67.7627 67 70.001 64.7617 70.001 62C70.001 59.2383 67.7627 57 65.001 57C62.2393 57 60.001 59.2383 60.001 62C60.001 64.7617 62.2393 67 65.001 67ZM45.001 87C47.7627 87 50.001 84.7617 50.001 82C50.001 79.2383 47.7627 77 45.001 77C42.2393 77 40.001 79.2383 40.001 82C40.001 84.7617 42.2393 87 45.001 87Z" fill="#FF3333" fill-opacity="0.5"/>
</svg>
