<svg width="214" height="214" viewBox="0 0 214 214" fill="none" xmlns="http://www.w3.org/2000/svg">
<path fill-rule="evenodd" clip-rule="evenodd" d="M108.461 0C112.083 0.0473718 115.663 0.275174 119.19 0.673655C119.538 5.08202 123.228 8.55131 127.727 8.55131C131.091 8.55131 134.002 6.61185 135.402 3.78974C150.287 7.86929 163.875 15.0816 175.416 24.673C175.032 25.6449 174.821 26.7038 174.821 27.8121C174.821 32.5395 178.655 36.3725 183.384 36.3725C184.603 36.3725 185.762 36.1175 186.812 35.6584C196.896 46.9225 204.629 60.3336 209.239 75.1226C205.462 76.0136 202.65 79.4063 202.65 83.4545C202.65 88.1819 206.484 92.0148 211.213 92.0148C211.826 92.0148 212.424 91.9508 213 91.8281C213.114 92.6328 213.22 93.4402 213.316 94.2504L213.358 94.6182L213.414 95.1121C213.482 95.7231 213.544 96.3354 213.601 96.9492C213.794 99.0091 213.927 101.087 214 103.179C213.468 102.996 212.913 102.864 212.34 102.789C212.178 102.768 212.015 102.751 211.85 102.738C211.762 102.732 211.673 102.726 211.583 102.723C211.461 102.717 211.337 102.715 211.213 102.715C206.484 102.715 202.65 106.548 202.65 111.276C202.65 116.003 206.484 119.836 211.213 119.836C211.379 119.836 211.545 119.831 211.71 119.821C211.782 119.817 211.854 119.812 211.927 119.806C212.005 119.8 212.083 119.793 212.16 119.784C212.369 119.761 212.576 119.731 212.781 119.693C212.968 119.658 213.153 119.617 213.335 119.571C212.9 123.289 212.274 126.948 211.467 130.54C211.383 130.537 211.298 130.536 211.213 130.536C206.484 130.536 202.65 134.369 202.65 139.097C202.65 142.13 204.228 144.795 206.609 146.315C198.119 167.786 182.883 185.854 163.512 197.907C163.903 196.927 164.118 195.858 164.118 194.739C164.118 190.012 160.284 186.179 155.555 186.179C150.827 186.179 146.993 190.012 146.993 194.739C146.993 198.944 150.026 202.441 154.024 203.163C139.839 210.104 123.891 214 107.033 214C86.8406 214 67.9537 208.409 51.8367 198.693C52.4541 197.51 52.8032 196.165 52.8032 194.739C52.8032 190.012 48.9692 186.179 44.2405 186.179C41.8092 186.179 39.6142 187.192 38.0554 188.819C32.3776 184.03 27.205 178.661 22.6289 172.804C24.0825 171.27 24.9745 169.198 24.9745 166.918C24.9745 162.191 21.1405 158.358 16.4118 158.358C15.3561 158.358 14.3457 158.549 13.4119 158.898C4.86737 143.525 0 125.829 0 106.995C0 90.7135 3.63747 75.2808 10.1445 61.4656C11.7075 63.1438 13.9373 64.1937 16.4118 64.1937C21.1405 64.1937 24.9745 60.3607 24.9745 55.6333C24.9745 51.5245 22.0784 48.0914 18.2159 47.2631C23.1975 39.8745 29.0767 33.1414 35.698 27.22L35.6855 27.445L35.6792 27.6442L35.6778 27.8121C35.6778 32.5395 39.5118 36.3725 44.2405 36.3725C48.9692 36.3725 52.8032 32.5395 52.8032 27.8121C52.8032 23.548 49.6841 20.0111 45.6021 19.359C52.4534 14.5501 59.8941 10.5242 67.7948 7.4102C68.6631 7.91109 69.6275 8.26429 70.6532 8.43497C71.1138 8.5116 71.587 8.55131 72.0692 8.55131C75.5631 8.55131 78.5678 6.45928 79.8995 3.45953C83.6596 2.47727 87.4998 1.69494 91.4091 1.12299C91.9631 5.31539 95.5531 8.55131 99.8979 8.55131C104.624 8.55131 108.456 4.72325 108.461 0ZM80.6319 27.8121C80.6319 32.5395 76.7979 36.3725 72.0692 36.3725C67.3405 36.3725 63.5065 32.5395 63.5065 27.8121C63.5065 23.0847 67.3405 19.2518 72.0692 19.2518C76.7979 19.2518 80.6319 23.0847 80.6319 27.8121ZM99.8979 36.3725C104.627 36.3725 108.461 32.5395 108.461 27.8121C108.461 23.0847 104.627 19.2518 99.8979 19.2518C95.1692 19.2518 91.3352 23.0847 91.3352 27.8121C91.3352 32.5395 95.1692 36.3725 99.8979 36.3725ZM136.289 27.8121C136.289 32.5395 132.455 36.3725 127.727 36.3725C122.998 36.3725 119.164 32.5395 119.164 27.8121C119.164 23.0847 122.998 19.2518 127.727 19.2518C132.455 19.2518 136.289 23.0847 136.289 27.8121ZM155.555 36.3725C160.284 36.3725 164.118 32.5395 164.118 27.8121C164.118 23.0847 160.284 19.2518 155.555 19.2518C150.827 19.2518 146.993 23.0847 146.993 27.8121C146.993 32.5395 150.827 36.3725 155.555 36.3725ZM44.2405 64.1937C48.9692 64.1937 52.8032 60.3607 52.8032 55.6333C52.8032 50.9059 48.9692 47.0729 44.2405 47.0729C39.5118 47.0729 35.6778 50.9059 35.6778 55.6333C35.6778 60.3607 39.5118 64.1937 44.2405 64.1937ZM80.6319 55.6333C80.6319 60.3607 76.7979 64.1937 72.0692 64.1937C67.3405 64.1937 63.5065 60.3607 63.5065 55.6333C63.5065 50.9059 67.3405 47.0729 72.0692 47.0729C76.7979 47.0729 80.6319 50.9059 80.6319 55.6333ZM99.8979 64.1937C104.627 64.1937 108.461 60.3607 108.461 55.6333C108.461 50.9059 104.627 47.0729 99.8979 47.0729C95.1692 47.0729 91.3352 50.9059 91.3352 55.6333C91.3352 60.3607 95.1692 64.1937 99.8979 64.1937ZM136.289 55.6333C136.289 60.3607 132.455 64.1937 127.727 64.1937C122.998 64.1937 119.164 60.3607 119.164 55.6333C119.164 50.9059 122.998 47.0729 127.727 47.0729C132.455 47.0729 136.289 50.9059 136.289 55.6333ZM155.555 64.1937C160.284 64.1937 164.118 60.3607 164.118 55.6333C164.118 50.9059 160.284 47.0729 155.555 47.0729C150.827 47.0729 146.993 50.9059 146.993 55.6333C146.993 60.3607 150.827 64.1937 155.555 64.1937ZM191.947 55.6333C191.947 60.3607 188.113 64.1937 183.384 64.1937C178.655 64.1937 174.821 60.3607 174.821 55.6333C174.821 50.9059 178.655 47.0729 183.384 47.0729C188.113 47.0729 191.947 50.9059 191.947 55.6333ZM24.9745 83.4545C24.9745 88.1819 21.1405 92.0148 16.4118 92.0148C11.6831 92.0148 7.84912 88.1819 7.84912 83.4545C7.84912 78.7271 11.6831 74.8941 16.4118 74.8941C21.1405 74.8941 24.9745 78.7271 24.9745 83.4545ZM44.2405 92.0148C48.9692 92.0148 52.8032 88.1819 52.8032 83.4545C52.8032 78.7271 48.9692 74.8941 44.2405 74.8941C39.5118 74.8941 35.6778 78.7271 35.6778 83.4545C35.6778 88.1819 39.5118 92.0148 44.2405 92.0148ZM80.6319 83.4545C80.6319 88.1819 76.7979 92.0148 72.0692 92.0148C67.3405 92.0148 63.5065 88.1819 63.5065 83.4545C63.5065 78.7271 67.3405 74.8941 72.0692 74.8941C76.7979 74.8941 80.6319 78.7271 80.6319 83.4545ZM99.8979 92.0148C104.627 92.0148 108.461 88.1819 108.461 83.4545C108.461 78.7271 104.627 74.8941 99.8979 74.8941C95.1692 74.8941 91.3352 78.7271 91.3352 83.4545C91.3352 88.1819 95.1692 92.0148 99.8979 92.0148ZM136.289 83.4545C136.289 88.1819 132.455 92.0148 127.727 92.0148C122.998 92.0148 119.164 88.1819 119.164 83.4545C119.164 78.7271 122.998 74.8941 127.727 74.8941C132.455 74.8941 136.289 78.7271 136.289 83.4545ZM155.555 92.0148C160.284 92.0148 164.118 88.1819 164.118 83.4545C164.118 78.7271 160.284 74.8941 155.555 74.8941C150.827 74.8941 146.993 78.7271 146.993 83.4545C146.993 88.1819 150.827 92.0148 155.555 92.0148ZM191.947 83.4545C191.947 88.1819 188.113 92.0148 183.384 92.0148C178.655 92.0148 174.821 88.1819 174.821 83.4545C174.821 78.7271 178.655 74.8941 183.384 74.8941C188.113 74.8941 191.947 78.7271 191.947 83.4545ZM24.9745 111.276C24.9745 116.003 21.1405 119.836 16.4118 119.836C11.6831 119.836 7.84912 116.003 7.84912 111.276C7.84912 106.548 11.6831 102.715 16.4118 102.715C21.1405 102.715 24.9745 106.548 24.9745 111.276ZM44.2405 119.836C48.9692 119.836 52.8032 116.003 52.8032 111.276C52.8032 106.548 48.9692 102.715 44.2405 102.715C39.5118 102.715 35.6778 106.548 35.6778 111.276C35.6778 116.003 39.5118 119.836 44.2405 119.836ZM80.6319 111.276C80.6319 116.003 76.7979 119.836 72.0692 119.836C67.3405 119.836 63.5065 116.003 63.5065 111.276C63.5065 106.548 67.3405 102.715 72.0692 102.715C76.7979 102.715 80.6319 106.548 80.6319 111.276ZM99.8979 119.836C104.627 119.836 108.461 116.003 108.461 111.276C108.461 106.548 104.627 102.715 99.8979 102.715C95.1692 102.715 91.3352 106.548 91.3352 111.276C91.3352 116.003 95.1692 119.836 99.8979 119.836ZM136.289 111.276C136.289 116.003 132.455 119.836 127.727 119.836C122.998 119.836 119.164 116.003 119.164 111.276C119.164 106.548 122.998 102.715 127.727 102.715C132.455 102.715 136.289 106.548 136.289 111.276ZM155.555 119.836C160.284 119.836 164.118 116.003 164.118 111.276C164.118 106.548 160.284 102.715 155.555 102.715C150.827 102.715 146.993 106.548 146.993 111.276C146.993 116.003 150.827 119.836 155.555 119.836ZM191.947 111.276C191.947 116.003 188.113 119.836 183.384 119.836C178.655 119.836 174.821 116.003 174.821 111.276C174.821 106.548 178.655 102.715 183.384 102.715C188.113 102.715 191.947 106.548 191.947 111.276ZM24.9745 139.097C24.9745 143.824 21.1405 147.657 16.4118 147.657C11.6831 147.657 7.84912 143.824 7.84912 139.097C7.84912 134.369 11.6831 130.536 16.4118 130.536C21.1405 130.536 24.9745 134.369 24.9745 139.097ZM44.2405 147.657C48.9692 147.657 52.8032 143.824 52.8032 139.097C52.8032 134.369 48.9692 130.536 44.2405 130.536C39.5118 130.536 35.6778 134.369 35.6778 139.097C35.6778 143.824 39.5118 147.657 44.2405 147.657ZM80.6319 139.097C80.6319 143.824 76.7979 147.657 72.0692 147.657C67.3405 147.657 63.5065 143.824 63.5065 139.097C63.5065 134.369 67.3405 130.536 72.0692 130.536C76.7979 130.536 80.6319 134.369 80.6319 139.097ZM99.8979 147.657C104.627 147.657 108.461 143.824 108.461 139.097C108.461 134.369 104.627 130.536 99.8979 130.536C95.1692 130.536 91.3352 134.369 91.3352 139.097C91.3352 143.824 95.1692 147.657 99.8979 147.657ZM136.289 139.097C136.289 143.824 132.455 147.657 127.727 147.657C122.998 147.657 119.164 143.824 119.164 139.097C119.164 134.369 122.998 130.536 127.727 130.536C132.455 130.536 136.289 134.369 136.289 139.097ZM155.555 147.657C160.284 147.657 164.118 143.824 164.118 139.097C164.118 134.369 160.284 130.536 155.555 130.536C150.827 130.536 146.993 134.369 146.993 139.097C146.993 143.824 150.827 147.657 155.555 147.657ZM191.947 139.097C191.947 143.824 188.113 147.657 183.384 147.657C178.655 147.657 174.821 143.824 174.821 139.097C174.821 134.369 178.655 130.536 183.384 130.536C188.113 130.536 191.947 134.369 191.947 139.097ZM44.2405 175.478C48.9692 175.478 52.8032 171.645 52.8032 166.918C52.8032 162.191 48.9692 158.358 44.2405 158.358C39.5118 158.358 35.6778 162.191 35.6778 166.918C35.6778 171.645 39.5118 175.478 44.2405 175.478ZM80.6319 166.918C80.6319 171.645 76.7979 175.478 72.0692 175.478C67.3405 175.478 63.5065 171.645 63.5065 166.918C63.5065 162.191 67.3405 158.358 72.0692 158.358C76.7979 158.358 80.6319 162.191 80.6319 166.918ZM99.8979 175.478C104.627 175.478 108.461 171.645 108.461 166.918C108.461 162.191 104.627 158.358 99.8979 158.358C95.1692 158.358 91.3352 162.191 91.3352 166.918C91.3352 171.645 95.1692 175.478 99.8979 175.478ZM136.289 166.918C136.289 171.645 132.455 175.478 127.727 175.478C122.998 175.478 119.164 171.645 119.164 166.918C119.164 162.191 122.998 158.358 127.727 158.358C132.455 158.358 136.289 162.191 136.289 166.918ZM155.555 175.478C160.284 175.478 164.118 171.645 164.118 166.918C164.118 162.191 160.284 158.358 155.555 158.358C150.827 158.358 146.993 162.191 146.993 166.918C146.993 171.645 150.827 175.478 155.555 175.478ZM191.947 166.918C191.947 171.645 188.113 175.478 183.384 175.478C178.655 175.478 174.821 171.645 174.821 166.918C174.821 162.191 178.655 158.358 183.384 158.358C188.113 158.358 191.947 162.191 191.947 166.918ZM80.6319 194.739C80.6319 199.467 76.7979 203.3 72.0692 203.3C67.3405 203.3 63.5065 199.467 63.5065 194.739C63.5065 190.012 67.3405 186.179 72.0692 186.179C76.7979 186.179 80.6319 190.012 80.6319 194.739ZM99.8979 203.3C104.627 203.3 108.461 199.467 108.461 194.739C108.461 190.012 104.627 186.179 99.8979 186.179C95.1692 186.179 91.3352 190.012 91.3352 194.739C91.3352 199.467 95.1692 203.3 99.8979 203.3ZM136.289 194.739C136.289 199.467 132.455 203.3 127.727 203.3C122.998 203.3 119.164 199.467 119.164 194.739C119.164 190.012 122.998 186.179 127.727 186.179C132.455 186.179 136.289 190.012 136.289 194.739Z" fill="#C4C4C4"/>
</svg>
