<svg width="91" height="90" viewBox="0 0 91 90" fill="none" xmlns="http://www.w3.org/2000/svg">
<path d="M25.8691 60.7432C25.6719 60.8037 25.4619 60.834 25.2412 60.834C25.1533 60.834 25.0684 60.8291 24.9844 60.8203C24.8965 60.8105 24.8115 60.7969 24.7285 60.7773C24.6719 60.7646 24.6162 60.75 24.5615 60.7324C24.5039 60.7139 24.4473 60.6924 24.3916 60.668C24.3066 60.6318 24.2246 60.5898 24.1455 60.542C24.0098 60.46 23.8818 60.3604 23.7627 60.2432C23.3613 59.8496 23.1611 59.3662 23.1611 58.792C23.1611 58.2393 23.3613 57.7607 23.7627 57.3564C24.1631 56.9521 24.6562 56.75 25.2412 56.75C25.498 56.75 25.7393 56.792 25.9648 56.876C26.084 56.9209 26.1992 56.9775 26.3105 57.0459C26.4482 57.1309 26.5791 57.2344 26.7031 57.3564C26.8232 57.4746 26.9258 57.5986 27.0107 57.7295C27.2178 58.0459 27.3213 58.4004 27.3213 58.792C27.3213 59.3662 27.1152 59.8496 26.7031 60.2432C26.4531 60.4824 26.1758 60.6494 25.8691 60.7432Z" fill="#FF3333" fill-opacity="0.5"/>
<path fill-rule="evenodd" clip-rule="evenodd" d="M45.4766 89.3135C70.1387 89.3135 90.1318 69.3203 90.1318 44.6562C90.1318 19.9932 70.1387 0 45.4766 0C20.8135 0 0.820312 19.9932 0.820312 44.6562C0.820312 69.3203 20.8135 89.3135 45.4766 89.3135ZM69.2139 47.2119C70.4053 45.8721 71.001 44.2881 71.001 42.459C71.001 40.7998 70.3828 39.3643 69.1504 38.1514C68.4668 37.4805 67.7139 36.9951 66.8916 36.6953C66.5488 36.5713 66.1943 36.4785 65.8271 36.418C65.6045 36.3809 65.376 36.3564 65.1436 36.3438C65.0186 36.3369 64.8916 36.333 64.7637 36.333H55.7607C55.8477 36.0352 55.9346 35.7803 56.0205 35.5674C56.0693 35.4463 56.1299 35.3184 56.2002 35.1836C56.2539 35.0811 56.3135 34.9746 56.3779 34.8652L56.5273 34.6104C56.6035 34.4785 56.6621 34.3721 56.7031 34.291C57.0928 33.5684 57.3906 32.9727 57.5967 32.5049C57.8027 32.0371 58.0078 31.3984 58.2139 30.5908C58.4199 29.7832 58.5225 28.9746 58.5225 28.166C58.5225 27.6562 58.5166 27.2412 58.5059 26.9219C58.4961 26.6035 58.4404 26.125 58.3438 25.4863C58.2832 25.0928 58.2109 24.7402 58.127 24.4277C58.0742 24.2334 58.0166 24.0547 57.9541 23.8916C57.791 23.4668 57.5312 22.9873 57.1738 22.4561C57.0586 22.2852 56.9355 22.124 56.8047 21.9736C56.748 21.9092 56.6904 21.8467 56.6309 21.7852C56.4004 21.5488 56.1475 21.3418 55.873 21.1641C55.3643 20.835 54.7139 20.5586 53.9238 20.335C53.1318 20.1113 52.2383 20 51.2412 20C50.9834 20 50.7412 20.043 50.5156 20.1279C50.3945 20.1729 50.2783 20.2305 50.167 20.2998C50.0312 20.3838 49.9023 20.4863 49.7793 20.6064C49.5664 20.8154 49.3691 21.0498 49.1875 21.3105C48.999 21.5801 48.8281 21.877 48.6738 22.2012L48.5215 22.5322C48.4453 22.7012 48.377 22.8643 48.3154 23.0205C48.2773 23.1182 48.2422 23.2129 48.21 23.3057C48.1787 23.3936 48.1504 23.4795 48.125 23.5635C48.0928 23.666 48.0645 23.7646 48.04 23.8604C47.9199 24.3281 47.7852 24.9766 47.6338 25.8057C47.4385 26.6992 47.293 27.3428 47.1943 27.7363C47.0967 28.1289 46.9072 28.6445 46.626 29.2832C46.3438 29.9209 46.0078 30.4316 45.6182 30.8145C45.4102 31.0186 45.1699 31.2705 44.8984 31.5723C44.6123 31.8887 44.291 32.2588 43.9346 32.6826C43.4639 33.2422 42.9307 33.8955 42.3359 34.6426C41.2734 36.0029 40.1797 37.29 39.0527 38.502C37.9258 39.7148 37.1025 40.3418 36.583 40.3848C36.042 40.4268 35.5762 40.6445 35.1855 41.0381C34.7959 41.4316 34.6006 41.8945 34.6006 42.4258V62.875C34.6006 62.9346 34.6025 62.9941 34.6074 63.0518C34.6162 63.1543 34.6328 63.2549 34.6572 63.3516C34.6758 63.4258 34.6982 63.499 34.7256 63.5703C34.8271 63.8359 34.9912 64.0771 35.2178 64.2939C35.6299 64.6875 36.1172 64.8945 36.6807 64.916C37.0586 64.9268 37.6738 65.0488 38.5264 65.2812C39.3828 65.5156 40.4795 65.8613 41.8154 66.3203C42.6602 66.5996 43.4121 66.8457 44.0713 67.0576C44.7129 67.2637 45.2666 67.4385 45.7314 67.5801C46.0938 67.6904 46.5107 67.8037 46.9824 67.9199C47.7402 68.1064 48.6396 68.3018 49.6797 68.5049C50.6377 68.6924 51.5537 68.8262 52.4287 68.9072C52.7139 68.9336 52.9951 68.9541 53.2715 68.9697C53.6426 68.9902 54.0049 69 54.3594 69H58.5518C61.4336 68.958 63.5674 68.1279 64.9541 66.5117C66.2109 65.0439 66.7412 63.1191 66.5469 60.7373C67.0215 60.2959 67.4141 59.7871 67.7256 59.2109C67.9678 58.7607 68.1602 58.2705 68.3018 57.7393C68.459 57.1846 68.5498 56.6396 68.5723 56.1045C68.585 55.7979 68.5762 55.4941 68.5449 55.1943C68.5029 54.793 68.4219 54.3975 68.3018 54.0078C69.2979 52.71 69.7637 51.2539 69.6982 49.6367C69.7012 48.9561 69.5391 48.1475 69.2139 47.2119ZM30.4414 40.417H21.0811C20.5176 40.417 20.0303 40.6191 19.6182 41.0234C19.207 41.4268 19.001 41.9053 19.001 42.459V62.876C19.001 63.4287 19.207 63.9072 19.6182 64.3115C20.0303 64.7148 20.5186 64.917 21.0811 64.917H30.4414C31.0039 64.917 31.4912 64.7148 31.9033 64.3115C32.3154 63.9072 32.5205 63.4287 32.5205 62.876V42.459C32.5205 42.1279 32.4473 41.8232 32.2998 41.5459C32.2764 41.502 32.251 41.459 32.2236 41.416C32.1367 41.2783 32.0303 41.1475 31.9033 41.0234C31.8311 40.9521 31.7559 40.8877 31.6787 40.8291C31.6133 40.7793 31.5459 40.7344 31.4775 40.6934C31.417 40.6572 31.3545 40.625 31.291 40.5957C31.1318 40.5225 30.9639 40.4727 30.7881 40.4443C30.6758 40.4258 30.5605 40.417 30.4414 40.417Z" fill="#FF3333" fill-opacity="0.5"/>
</svg>
