<svg width="90" height="90" viewBox="0 0 90 90" fill="none" xmlns="http://www.w3.org/2000/svg">
<path d="M31.6621 62.1826C32.7051 62.1826 33.6084 61.8037 34.3701 61.0488C35.1328 60.293 35.5137 59.3984 35.5137 58.3643C35.5137 57.3301 35.1328 56.4346 34.3701 55.6787C33.6084 54.9238 32.7051 54.5459 31.6621 54.5459C30.6182 54.5459 29.7158 54.9238 28.9531 55.6787C28.1914 56.4346 27.8096 57.3301 27.8096 58.3643C27.8096 59.3984 28.1914 60.293 28.9531 61.0488C29.7158 61.8047 30.6182 62.1826 31.6621 62.1826Z" fill="#FF3333" fill-opacity="0.5"/>
<path d="M23.958 43.0908H35.5137V35.4551H30.7588C30.498 35.4551 30.2773 35.5449 30.0967 35.7236L24.2285 41.54C24.0479 41.7188 23.958 41.9375 23.958 42.1963V43.0908Z" fill="#FF3333" fill-opacity="0.5"/>
<path d="M60.2285 61.835C60.625 61.6475 60.9932 61.3857 61.333 61.0488C62.0967 60.293 62.4775 59.3984 62.4775 58.3643C62.4775 57.3301 62.0957 56.4346 61.333 55.6787C60.5713 54.9238 59.668 54.5459 58.625 54.5459C57.8135 54.5459 57.0879 54.7744 56.4463 55.2305C56.2627 55.3613 56.0859 55.5107 55.916 55.6787C55.1543 56.4346 54.7725 57.3301 54.7725 58.3643C54.7725 59.3984 55.1543 60.293 55.916 61.0488C56.6787 61.8047 57.582 62.1826 58.625 62.1826C59.2021 62.1826 59.7363 62.0664 60.2285 61.835Z" fill="#FF3333" fill-opacity="0.5"/>
<path fill-rule="evenodd" clip-rule="evenodd" d="M44.6562 89.3135C69.3184 89.3135 89.3115 69.3203 89.3115 44.6562C89.3115 19.9932 69.3184 0 44.6562 0C19.9932 0 0 19.9932 0 44.6562C0 69.3203 19.9932 89.3135 44.6562 89.3135ZM68.2559 24C68.7764 24 69.2285 24.1895 69.6094 24.5664C69.9902 24.9453 70.1807 25.3926 70.1807 25.9092V56.4551C70.1807 56.7529 70.1416 57.0166 70.0605 57.2451C69.9805 57.4736 69.8447 57.6572 69.6533 57.7969C69.4629 57.9365 69.2979 58.0508 69.1572 58.1406C69.0166 58.2295 68.7812 58.2891 68.4502 58.3193L67.7734 58.3789C67.6523 58.3887 67.3965 58.3887 67.0059 58.3789L66.3291 58.3643C66.3291 60.4717 65.5771 62.2715 64.0723 63.7627C62.5674 65.2539 60.752 66 58.625 66C56.498 66 54.6826 65.2539 53.1787 63.7627C51.6738 62.2715 50.9219 60.4717 50.9219 58.3643H39.3662C39.3662 60.4717 38.6143 62.2715 37.1094 63.7627C35.6045 65.2539 33.7891 66 31.6621 66C29.5352 66 27.7197 65.2539 26.2158 63.7627C24.7109 62.2715 23.959 60.4717 23.959 58.3643H22.0332L21.3555 58.3789C20.9639 58.3887 20.709 58.3887 20.5879 58.3789L19.9111 58.3193C19.5801 58.2891 19.3447 58.2295 19.2041 58.1406C19.0635 58.0508 18.8975 57.9365 18.707 57.7969C18.5166 57.6572 18.3809 57.4736 18.3008 57.2451C18.2207 57.0166 18.1807 56.7529 18.1807 56.4551C18.1807 55.9375 18.3711 55.4902 18.7529 55.1133C18.958 54.9092 19.1836 54.7598 19.4297 54.666C19.6406 54.5859 19.8662 54.5459 20.1064 54.5459V45.001L20.0996 44.4326L20.0918 43.9561C20.082 43.4189 20.082 43.041 20.0918 42.8223C20.1016 42.6035 20.127 42.2607 20.167 41.793C20.2061 41.3252 20.2725 40.958 20.3623 40.6895C20.4521 40.4209 20.5928 40.1172 20.7832 39.7803C20.9746 39.4414 21.2002 39.1436 21.4609 38.8848L27.4189 32.9785C27.7998 32.6006 28.3066 32.2832 28.9385 32.0244C29.5703 31.7656 30.1572 31.6367 30.6992 31.6367H35.5146V25.9092C35.5146 25.3926 35.7051 24.9443 36.0859 24.5664C36.4668 24.1895 36.9189 24 37.4404 24H68.2559Z" fill="#FF3333" fill-opacity="0.5"/>
</svg>
